<svg xmlns="http://www.w3.org/2000/svg" xmlns:xlink="http://www.w3.org/1999/xlink" id="body_4" preserveAspectRatio="xMinYMin meet" viewBox="0 0 820 1160"><defs><clipPath id="1"><path id="" clip-rule="evenodd" transform="matrix(1 0 0 1 0 0)" d="M0 870L0 0L0 0L615 0L615 0L615 870L615 870L0 870z" /></clipPath><clipPath id="2"><path id="" clip-rule="evenodd" transform="matrix(1 0 0 1 0 0)" d="M0 0L614.4 0L614.4 0L614.4 869.1512L614.4 869.1512L0 869.1512L0 869.1512L0 0z" /></clipPath><clipPath id="3"><path id="" clip-rule="evenodd" transform="matrix(1 0 0 1 0 0)" d="M0 0L614.4 0L614.4 0L614.4 869.1512L614.4 869.1512L0 869.1512L0 869.1512L0 0z" /></clipPath><clipPath id="4"><path id="" clip-rule="evenodd" transform="matrix(1 0 0 1 0 0)" d="M56.94439 39.71124L382.1268 39.71124L382.1268 39.71124L382.1268 62.18927L382.1268 62.18927L56.94439 62.18927L56.94439 62.18927L56.94439 39.71124z" /></clipPath><clipPath id="5"><path id="" clip-rule="evenodd" transform="matrix(1 0 0 1 0 0)" d="M0 0L614.4 0L614.4 0L614.4 869.1512L614.4 869.1512L0 869.1512L0 869.1512L0 0z" /></clipPath><clipPath id="6"><path id="" clip-rule="evenodd" transform="matrix(1 0 0 1 0 0)" d="M0 0L614.4 0L614.4 0L614.4 869.1512L614.4 869.1512L0 869.1512L0 869.1512L0 0z" /></clipPath><clipPath id="7"><path id="" clip-rule="evenodd" transform="matrix(1 0 0 1 0 0)" d="M56.94439 39.71124L382.1268 39.71124L382.1268 39.71124L382.1268 62.18927L382.1268 62.18927L56.94439 62.18927L56.94439 62.18927L56.94439 39.71124z" /></clipPath><clipPath id="8"><path id="" clip-rule="evenodd" transform="matrix(1 0 0 1 0 0)" d="M0 0L614.4 0L614.4 0L614.4 869.1512L614.4 869.1512L0 869.1512L0 869.1512L0 0z" /></clipPath><clipPath id="9"><path id="" clip-rule="evenodd" transform="matrix(1 0 0 1 0 0)" d="M0 0L614.4 0L614.4 0L614.4 869.1512L614.4 869.1512L0 869.1512L0 869.1512L0 0z" /></clipPath><clipPath id="10"><path id="" clip-rule="evenodd" transform="matrix(1 0 0 1 0 0)" d="M99.65267 73.42828C 113.7149 73.42828 125.1278 84.84106 125.1278 98.90338C 125.1278 112.9657 113.7149 124.3785 99.65267 124.3785C 85.59042 124.3785 74.17755 112.9657 74.17755 98.90338C 74.17755 84.84106 85.59042 73.42828 99.65267 73.42828z" /></clipPath><clipPath id="11"><path id="" clip-rule="evenodd" transform="matrix(1 0 0 1 0 0)" d="M0 0L614.4 0L614.4 0L614.4 869.1512L614.4 869.1512L0 869.1512L0 869.1512L0 0z" /></clipPath><clipPath id="12"><path id="" clip-rule="evenodd" transform="matrix(1 0 0 1 0 0)" d="M0 0L614.4 0L614.4 0L614.4 869.1512L614.4 869.1512L0 869.1512L0 869.1512L0 0z" /></clipPath><clipPath id="13"><path id="" clip-rule="evenodd" transform="matrix(1 0 0 1 0 0)" d="M77.17463 76.42535L122.1307 76.42535L122.1307 76.42535L122.1307 121.3815L122.1307 121.3815L77.17463 121.3815L77.17463 121.3815L77.17463 76.42535z" /></clipPath><clipPath id="14"><path id="" clip-rule="evenodd" transform="matrix(1 0 0 1 0 0)" d="M0 0L614.4 0L614.4 0L614.4 869.1512L614.4 869.1512L0 869.1512L0 869.1512L0 0z" /></clipPath><clipPath id="15"><path id="" clip-rule="evenodd" transform="matrix(1 0 0 1 0 0)" d="M0 0L614.4 0L614.4 0L614.4 869.1512L614.4 869.1512L0 869.1512L0 869.1512L0 0z" /></clipPath><clipPath id="16"><path id="" clip-rule="evenodd" transform="matrix(1 0 0 1 0 0)" d="M77.17463 76.42535L122.1307 76.42535L122.1307 76.42535L122.1307 121.3815L122.1307 121.3815L77.17463 121.3815L77.17463 121.3815L77.17463 76.42535z" /></clipPath><clipPath id="17"><path id="" clip-rule="evenodd" transform="matrix(1 0 0 1 0 0)" d="M0 0L614.4 0L614.4 0L614.4 869.1512L614.4 869.1512L0 869.1512L0 869.1512L0 0z" /></clipPath><clipPath id="18"><path id="" clip-rule="evenodd" transform="matrix(1 0 0 1 0 0)" d="M0 0L614.4 0L614.4 0L614.4 869.1512L614.4 869.1512L0 869.1512L0 869.1512L0 0z" /></clipPath><clipPath id="19"><path id="" clip-rule="evenodd" transform="matrix(1 0 0 1 0 0)" d="M77.17463 76.42535L122.1307 76.42535L122.1307 76.42535L122.1307 121.3815L122.1307 121.3815L77.17463 121.3815L77.17463 121.3815L77.17463 76.42535z" /></clipPath><clipPath id="20"><path id="" clip-rule="evenodd" transform="matrix(1 0 0 1 0 0)" d="M0 0L614.4 0L614.4 0L614.4 869.1512L614.4 869.1512L0 869.1512L0 869.1512L0 0z" /></clipPath><clipPath id="21"><path id="" clip-rule="evenodd" transform="matrix(1 0 0 1 0 0)" d="M0 0L614.4 0L614.4 0L614.4 869.1512L614.4 869.1512L0 869.1512L0 869.1512L0 0z" /></clipPath><clipPath id="22"><path id="" clip-rule="evenodd" transform="matrix(1 0 0 1 0 0)" d="M77.17463 76.42535L122.1307 76.42535L122.1307 76.42535L122.1307 121.3815L122.1307 121.3815L77.17463 121.3815L77.17463 121.3815L77.17463 76.42535z" /></clipPath><clipPath id="23"><path id="" clip-rule="evenodd" transform="matrix(1 0 0 1 0 0)" d="M0 0L614.4 0L614.4 0L614.4 869.1512L614.4 869.1512L0 869.1512L0 869.1512L0 0z" /></clipPath><clipPath id="24"><path id="" clip-rule="evenodd" transform="matrix(1 0 0 1 0 0)" d="M0 0L614.4 0L614.4 0L614.4 869.1512L614.4 869.1512L0 869.1512L0 869.1512L0 0z" /></clipPath><clipPath id="25"><path id="" clip-rule="evenodd" transform="matrix(1 0 0 1 0 0)" d="M77.17463 76.42535L122.1307 76.42535L122.1307 76.42535L122.1307 121.3815L122.1307 121.3815L77.17463 121.3815L77.17463 121.3815L77.17463 76.42535z" /></clipPath><clipPath id="26"><path id="" clip-rule="evenodd" transform="matrix(1 0 0 1 0 0)" d="M0 0L614.4 0L614.4 0L614.4 869.1512L614.4 869.1512L0 869.1512L0 869.1512L0 0z" /></clipPath><clipPath id="27"><path id="" clip-rule="evenodd" transform="matrix(1 0 0 1 0 0)" d="M0 0L614.4 0L614.4 0L614.4 869.1512L614.4 869.1512L0 869.1512L0 869.1512L0 0z" /></clipPath><clipPath id="28"><path id="" clip-rule="evenodd" transform="matrix(1 0 0 1 0 0)" d="M186.5678 73.42828C 200.6301 73.42828 212.0429 84.84106 212.0429 98.90338C 212.0429 112.9657 200.6301 124.3785 186.5678 124.3785C 172.5055 124.3785 161.0927 112.9657 161.0927 98.90338C 161.0927 84.84106 172.5055 73.42828 186.5678 73.42828z" /></clipPath><clipPath id="29"><path id="" clip-rule="evenodd" transform="matrix(1 0 0 1 0 0)" d="M0 0L614.4 0L614.4 0L614.4 869.1512L614.4 869.1512L0 869.1512L0 869.1512L0 0z" /></clipPath><clipPath id="30"><path id="" clip-rule="evenodd" transform="matrix(1 0 0 1 0 0)" d="M0 0L614.4 0L614.4 0L614.4 869.1512L614.4 869.1512L0 869.1512L0 869.1512L0 0z" /></clipPath><clipPath id="31"><path id="" clip-rule="evenodd" transform="matrix(1 0 0 1 0 0)" d="M164.0897 76.42535L209.0458 76.42535L209.0458 76.42535L209.0458 121.3815L209.0458 121.3815L164.0897 121.3815L164.0897 121.3815L164.0897 76.42535z" /></clipPath><clipPath id="32"><path id="" clip-rule="evenodd" transform="matrix(1 0 0 1 0 0)" d="M0 0L614.4 0L614.4 0L614.4 869.1512L614.4 869.1512L0 869.1512L0 869.1512L0 0z" /></clipPath><clipPath id="33"><path id="" clip-rule="evenodd" transform="matrix(1 0 0 1 0 0)" d="M0 0L614.4 0L614.4 0L614.4 869.1512L614.4 869.1512L0 869.1512L0 869.1512L0 0z" /></clipPath><clipPath id="34"><path id="" clip-rule="evenodd" transform="matrix(1 0 0 1 0 0)" d="M164.0897 76.42535L209.0458 76.42535L209.0458 76.42535L209.0458 121.3815L209.0458 121.3815L164.0897 121.3815L164.0897 121.3815L164.0897 76.42535z" /></clipPath><clipPath id="35"><path id="" clip-rule="evenodd" transform="matrix(1 0 0 1 0 0)" d="M0 0L614.4 0L614.4 0L614.4 869.1512L614.4 869.1512L0 869.1512L0 869.1512L0 0z" /></clipPath><clipPath id="36"><path id="" clip-rule="evenodd" transform="matrix(1 0 0 1 0 0)" d="M0 0L614.4 0L614.4 0L614.4 869.1512L614.4 869.1512L0 869.1512L0 869.1512L0 0z" /></clipPath><clipPath id="37"><path id="" clip-rule="evenodd" transform="matrix(1 0 0 1 0 0)" d="M164.0897 76.42535L209.0458 76.42535L209.0458 76.42535L209.0458 121.3815L209.0458 121.3815L164.0897 121.3815L164.0897 121.3815L164.0897 76.42535z" /></clipPath><clipPath id="38"><path id="" clip-rule="evenodd" transform="matrix(1 0 0 1 0 0)" d="M0 0L614.4 0L614.4 0L614.4 869.1512L614.4 869.1512L0 869.1512L0 869.1512L0 0z" /></clipPath><clipPath id="39"><path id="" clip-rule="evenodd" transform="matrix(1 0 0 1 0 0)" d="M0 0L614.4 0L614.4 0L614.4 869.1512L614.4 869.1512L0 869.1512L0 869.1512L0 0z" /></clipPath><clipPath id="40"><path id="" clip-rule="evenodd" transform="matrix(1 0 0 1 0 0)" d="M164.0897 76.42535L209.0458 76.42535L209.0458 76.42535L209.0458 121.3815L209.0458 121.3815L164.0897 121.3815L164.0897 121.3815L164.0897 76.42535z" /></clipPath><clipPath id="41"><path id="" clip-rule="evenodd" transform="matrix(1 0 0 1 0 0)" d="M0 0L614.4 0L614.4 0L614.4 869.1512L614.4 869.1512L0 869.1512L0 869.1512L0 0z" /></clipPath><clipPath id="42"><path id="" clip-rule="evenodd" transform="matrix(1 0 0 1 0 0)" d="M0 0L614.4 0L614.4 0L614.4 869.1512L614.4 869.1512L0 869.1512L0 869.1512L0 0z" /></clipPath><clipPath id="43"><path id="" clip-rule="evenodd" transform="matrix(1 0 0 1 0 0)" d="M164.0897 76.42535L209.0458 76.42535L209.0458 76.42535L209.0458 121.3815L209.0458 121.3815L164.0897 121.3815L164.0897 121.3815L164.0897 76.42535z" /></clipPath><clipPath id="44"><path id="" clip-rule="evenodd" transform="matrix(1 0 0 1 0 0)" d="M0 0L614.4 0L614.4 0L614.4 869.1512L614.4 869.1512L0 869.1512L0 869.1512L0 0z" /></clipPath><clipPath id="45"><path id="" clip-rule="evenodd" transform="matrix(1 0 0 1 0 0)" d="M0 0L614.4 0L614.4 0L614.4 869.1512L614.4 869.1512L0 869.1512L0 869.1512L0 0z" /></clipPath><clipPath id="46"><path id="" clip-rule="evenodd" transform="matrix(1 0 0 1 0 0)" d="M273.4829 73.42828C 287.5452 73.42828 298.958 84.84106 298.958 98.90338C 298.958 112.9657 287.5452 124.3785 273.4829 124.3785C 259.4206 124.3785 248.0078 112.9657 248.0078 98.90338C 248.0078 84.84106 259.4206 73.42828 273.4829 73.42828z" /></clipPath><clipPath id="47"><path id="" clip-rule="evenodd" transform="matrix(1 0 0 1 0 0)" d="M0 0L614.4 0L614.4 0L614.4 869.1512L614.4 869.1512L0 869.1512L0 869.1512L0 0z" /></clipPath><clipPath id="48"><path id="" clip-rule="evenodd" transform="matrix(1 0 0 1 0 0)" d="M0 0L614.4 0L614.4 0L614.4 869.1512L614.4 869.1512L0 869.1512L0 869.1512L0 0z" /></clipPath><clipPath id="49"><path id="" clip-rule="evenodd" transform="matrix(1 0 0 1 0 0)" d="M251.0049 76.42535L295.9609 76.42535L295.9609 76.42535L295.9609 121.3815L295.9609 121.3815L251.0049 121.3815L251.0049 121.3815L251.0049 76.42535z" /></clipPath><clipPath id="50"><path id="" clip-rule="evenodd" transform="matrix(1 0 0 1 0 0)" d="M0 0L614.4 0L614.4 0L614.4 869.1512L614.4 869.1512L0 869.1512L0 869.1512L0 0z" /></clipPath><clipPath id="51"><path id="" clip-rule="evenodd" transform="matrix(1 0 0 1 0 0)" d="M0 0L614.4 0L614.4 0L614.4 869.1512L614.4 869.1512L0 869.1512L0 869.1512L0 0z" /></clipPath><clipPath id="52"><path id="" clip-rule="evenodd" transform="matrix(1 0 0 1 0 0)" d="M251.0049 76.42535L295.9609 76.42535L295.9609 76.42535L295.9609 121.3815L295.9609 121.3815L251.0049 121.3815L251.0049 121.3815L251.0049 76.42535z" /></clipPath><clipPath id="53"><path id="" clip-rule="evenodd" transform="matrix(1 0 0 1 0 0)" d="M0 0L614.4 0L614.4 0L614.4 869.1512L614.4 869.1512L0 869.1512L0 869.1512L0 0z" /></clipPath><clipPath id="54"><path id="" clip-rule="evenodd" transform="matrix(1 0 0 1 0 0)" d="M0 0L614.4 0L614.4 0L614.4 869.1512L614.4 869.1512L0 869.1512L0 869.1512L0 0z" /></clipPath><clipPath id="55"><path id="" clip-rule="evenodd" transform="matrix(1 0 0 1 0 0)" d="M251.0049 76.42535L295.9609 76.42535L295.9609 76.42535L295.9609 121.3815L295.9609 121.3815L251.0049 121.3815L251.0049 121.3815L251.0049 76.42535z" /></clipPath><clipPath id="56"><path id="" clip-rule="evenodd" transform="matrix(1 0 0 1 0 0)" d="M0 0L614.4 0L614.4 0L614.4 869.1512L614.4 869.1512L0 869.1512L0 869.1512L0 0z" /></clipPath><clipPath id="57"><path id="" clip-rule="evenodd" transform="matrix(1 0 0 1 0 0)" d="M0 0L614.4 0L614.4 0L614.4 869.1512L614.4 869.1512L0 869.1512L0 869.1512L0 0z" /></clipPath><clipPath id="58"><path id="" clip-rule="evenodd" transform="matrix(1 0 0 1 0 0)" d="M251.0049 76.42535L295.9609 76.42535L295.9609 76.42535L295.9609 121.3815L295.9609 121.3815L251.0049 121.3815L251.0049 121.3815L251.0049 76.42535z" /></clipPath><clipPath id="59"><path id="" clip-rule="evenodd" transform="matrix(1 0 0 1 0 0)" d="M0 0L614.4 0L614.4 0L614.4 869.1512L614.4 869.1512L0 869.1512L0 869.1512L0 0z" /></clipPath><clipPath id="60"><path id="" clip-rule="evenodd" transform="matrix(1 0 0 1 0 0)" d="M0 0L614.4 0L614.4 0L614.4 869.1512L614.4 869.1512L0 869.1512L0 869.1512L0 0z" /></clipPath><clipPath id="61"><path id="" clip-rule="evenodd" transform="matrix(1 0 0 1 0 0)" d="M251.0049 76.42535L295.9609 76.42535L295.9609 76.42535L295.9609 121.3815L295.9609 121.3815L251.0049 121.3815L251.0049 121.3815L251.0049 76.42535z" /></clipPath><clipPath id="62"><path id="" clip-rule="evenodd" transform="matrix(1 0 0 1 0 0)" d="M0 0L614.4 0L614.4 0L614.4 869.1512L614.4 869.1512L0 869.1512L0 869.1512L0 0z" /></clipPath><clipPath id="63"><path id="" clip-rule="evenodd" transform="matrix(1 0 0 1 0 0)" d="M0 0L614.4 0L614.4 0L614.4 869.1512L614.4 869.1512L0 869.1512L0 869.1512L0 0z" /></clipPath><clipPath id="64"><path id="" clip-rule="evenodd" transform="matrix(1 0 0 1 0 0)" d="M360.398 73.42828C 374.4603 73.42828 385.8731 84.84106 385.8731 98.90338C 385.8731 112.9657 374.4603 124.3785 360.398 124.3785C 346.3358 124.3785 334.9229 112.9657 334.9229 98.90338C 334.9229 84.84106 346.3358 73.42828 360.398 73.42828z" /></clipPath><clipPath id="65"><path id="" clip-rule="evenodd" transform="matrix(1 0 0 1 0 0)" d="M0 0L614.4 0L614.4 0L614.4 869.1512L614.4 869.1512L0 869.1512L0 869.1512L0 0z" /></clipPath><clipPath id="66"><path id="" clip-rule="evenodd" transform="matrix(1 0 0 1 0 0)" d="M0 0L614.4 0L614.4 0L614.4 869.1512L614.4 869.1512L0 869.1512L0 869.1512L0 0z" /></clipPath><clipPath id="67"><path id="" clip-rule="evenodd" transform="matrix(1 0 0 1 0 0)" d="M337.92 76.42535L382.8761 76.42535L382.8761 76.42535L382.8761 121.3815L382.8761 121.3815L337.92 121.3815L337.92 121.3815L337.92 76.42535z" /></clipPath><clipPath id="68"><path id="" clip-rule="evenodd" transform="matrix(1 0 0 1 0 0)" d="M0 0L614.4 0L614.4 0L614.4 869.1512L614.4 869.1512L0 869.1512L0 869.1512L0 0z" /></clipPath><clipPath id="69"><path id="" clip-rule="evenodd" transform="matrix(1 0 0 1 0 0)" d="M0 0L614.4 0L614.4 0L614.4 869.1512L614.4 869.1512L0 869.1512L0 869.1512L0 0z" /></clipPath><clipPath id="70"><path id="" clip-rule="evenodd" transform="matrix(1 0 0 1 0 0)" d="M337.92 76.42535L382.8761 76.42535L382.8761 76.42535L382.8761 121.3815L382.8761 121.3815L337.92 121.3815L337.92 121.3815L337.92 76.42535z" /></clipPath><clipPath id="71"><path id="" clip-rule="evenodd" transform="matrix(1 0 0 1 0 0)" d="M0 0L614.4 0L614.4 0L614.4 869.1512L614.4 869.1512L0 869.1512L0 869.1512L0 0z" /></clipPath><clipPath id="72"><path id="" clip-rule="evenodd" transform="matrix(1 0 0 1 0 0)" d="M0 0L614.4 0L614.4 0L614.4 869.1512L614.4 869.1512L0 869.1512L0 869.1512L0 0z" /></clipPath><clipPath id="73"><path id="" clip-rule="evenodd" transform="matrix(1 0 0 1 0 0)" d="M337.92 76.42535L382.8761 76.42535L382.8761 76.42535L382.8761 121.3815L382.8761 121.3815L337.92 121.3815L337.92 121.3815L337.92 76.42535z" /></clipPath><clipPath id="74"><path id="" clip-rule="evenodd" transform="matrix(1 0 0 1 0 0)" d="M0 0L614.4 0L614.4 0L614.4 869.1512L614.4 869.1512L0 869.1512L0 869.1512L0 0z" /></clipPath><clipPath id="75"><path id="" clip-rule="evenodd" transform="matrix(1 0 0 1 0 0)" d="M0 0L614.4 0L614.4 0L614.4 869.1512L614.4 869.1512L0 869.1512L0 869.1512L0 0z" /></clipPath><clipPath id="76"><path id="" clip-rule="evenodd" transform="matrix(1 0 0 1 0 0)" d="M337.92 76.42535L382.8761 76.42535L382.8761 76.42535L382.8761 121.3815L382.8761 121.3815L337.92 121.3815L337.92 121.3815L337.92 76.42535z" /></clipPath><clipPath id="77"><path id="" clip-rule="evenodd" transform="matrix(1 0 0 1 0 0)" d="M0 0L614.4 0L614.4 0L614.4 869.1512L614.4 869.1512L0 869.1512L0 869.1512L0 0z" /></clipPath><clipPath id="78"><path id="" clip-rule="evenodd" transform="matrix(1 0 0 1 0 0)" d="M0 0L614.4 0L614.4 0L614.4 869.1512L614.4 869.1512L0 869.1512L0 869.1512L0 0z" /></clipPath><clipPath id="79"><path id="" clip-rule="evenodd" transform="matrix(1 0 0 1 0 0)" d="M337.92 76.42535L382.8761 76.42535L382.8761 76.42535L382.8761 121.3815L382.8761 121.3815L337.92 121.3815L337.92 121.3815L337.92 76.42535z" /></clipPath><clipPath id="80"><path id="" clip-rule="evenodd" transform="matrix(1 0 0 1 0 0)" d="M0 0L614.4 0L614.4 0L614.4 869.1512L614.4 869.1512L0 869.1512L0 869.1512L0 0z" /></clipPath><clipPath id="81"><path id="" clip-rule="evenodd" transform="matrix(1 0 0 1 0 0)" d="M0 0L614.4 0L614.4 0L614.4 869.1512L614.4 869.1512L0 869.1512L0 869.1512L0 0z" /></clipPath><clipPath id="82"><path id="" clip-rule="evenodd" transform="matrix(1 0 0 1 0 0)" d="M447.3131 73.42828C 461.3754 73.42828 472.7883 84.84106 472.7883 98.90338C 472.7883 112.9657 461.3754 124.3785 447.3131 124.3785C 433.2509 124.3785 421.838 112.9657 421.838 98.90338C 421.838 84.84106 433.2509 73.42828 447.3131 73.42828z" /></clipPath><clipPath id="83"><path id="" clip-rule="evenodd" transform="matrix(1 0 0 1 0 0)" d="M0 0L614.4 0L614.4 0L614.4 869.1512L614.4 869.1512L0 869.1512L0 869.1512L0 0z" /></clipPath><clipPath id="84"><path id="" clip-rule="evenodd" transform="matrix(1 0 0 1 0 0)" d="M0 0L614.4 0L614.4 0L614.4 869.1512L614.4 869.1512L0 869.1512L0 869.1512L0 0z" /></clipPath><clipPath id="85"><path id="" clip-rule="evenodd" transform="matrix(1 0 0 1 0 0)" d="M424.8351 76.42535L469.7912 76.42535L469.7912 76.42535L469.7912 121.3815L469.7912 121.3815L424.8351 121.3815L424.8351 121.3815L424.8351 76.42535z" /></clipPath><clipPath id="86"><path id="" clip-rule="evenodd" transform="matrix(1 0 0 1 0 0)" d="M0 0L614.4 0L614.4 0L614.4 869.1512L614.4 869.1512L0 869.1512L0 869.1512L0 0z" /></clipPath><clipPath id="87"><path id="" clip-rule="evenodd" transform="matrix(1 0 0 1 0 0)" d="M0 0L614.4 0L614.4 0L614.4 869.1512L614.4 869.1512L0 869.1512L0 869.1512L0 0z" /></clipPath><clipPath id="88"><path id="" clip-rule="evenodd" transform="matrix(1 0 0 1 0 0)" d="M424.8351 76.42535L469.7912 76.42535L469.7912 76.42535L469.7912 121.3815L469.7912 121.3815L424.8351 121.3815L424.8351 121.3815L424.8351 76.42535z" /></clipPath><clipPath id="89"><path id="" clip-rule="evenodd" transform="matrix(1 0 0 1 0 0)" d="M0 0L614.4 0L614.4 0L614.4 869.1512L614.4 869.1512L0 869.1512L0 869.1512L0 0z" /></clipPath><clipPath id="90"><path id="" clip-rule="evenodd" transform="matrix(1 0 0 1 0 0)" d="M0 0L614.4 0L614.4 0L614.4 869.1512L614.4 869.1512L0 869.1512L0 869.1512L0 0z" /></clipPath><clipPath id="91"><path id="" clip-rule="evenodd" transform="matrix(1 0 0 1 0 0)" d="M424.8351 76.42535L469.7912 76.42535L469.7912 76.42535L469.7912 121.3815L469.7912 121.3815L424.8351 121.3815L424.8351 121.3815L424.8351 76.42535z" /></clipPath><clipPath id="92"><path id="" clip-rule="evenodd" transform="matrix(1 0 0 1 0 0)" d="M0 0L614.4 0L614.4 0L614.4 869.1512L614.4 869.1512L0 869.1512L0 869.1512L0 0z" /></clipPath><clipPath id="93"><path id="" clip-rule="evenodd" transform="matrix(1 0 0 1 0 0)" d="M0 0L614.4 0L614.4 0L614.4 869.1512L614.4 869.1512L0 869.1512L0 869.1512L0 0z" /></clipPath><clipPath id="94"><path id="" clip-rule="evenodd" transform="matrix(1 0 0 1 0 0)" d="M424.8351 76.42535L469.7912 76.42535L469.7912 76.42535L469.7912 121.3815L469.7912 121.3815L424.8351 121.3815L424.8351 121.3815L424.8351 76.42535z" /></clipPath><clipPath id="95"><path id="" clip-rule="evenodd" transform="matrix(1 0 0 1 0 0)" d="M0 0L614.4 0L614.4 0L614.4 869.1512L614.4 869.1512L0 869.1512L0 869.1512L0 0z" /></clipPath><clipPath id="96"><path id="" clip-rule="evenodd" transform="matrix(1 0 0 1 0 0)" d="M0 0L614.4 0L614.4 0L614.4 869.1512L614.4 869.1512L0 869.1512L0 869.1512L0 0z" /></clipPath><clipPath id="97"><path id="" clip-rule="evenodd" transform="matrix(1 0 0 1 0 0)" d="M424.8351 76.42535L469.7912 76.42535L469.7912 76.42535L469.7912 121.3815L469.7912 121.3815L424.8351 121.3815L424.8351 121.3815L424.8351 76.42535z" /></clipPath><clipPath id="98"><path id="" clip-rule="evenodd" transform="matrix(1 0 0 1 0 0)" d="M0 0L614.4 0L614.4 0L614.4 869.1512L614.4 869.1512L0 869.1512L0 869.1512L0 0z" /></clipPath><clipPath id="99"><path id="" clip-rule="evenodd" transform="matrix(1 0 0 1 0 0)" d="M0 0L614.4 0L614.4 0L614.4 869.1512L614.4 869.1512L0 869.1512L0 869.1512L0 0z" /></clipPath><clipPath id="100"><path id="" clip-rule="evenodd" transform="matrix(1 0 0 1 0 0)" d="M56.94439 209.7951L382.1268 209.7951L382.1268 209.7951L382.1268 232.2731L382.1268 232.2731L56.94439 232.2731L56.94439 232.2731L56.94439 209.7951z" /></clipPath><clipPath id="101"><path id="" clip-rule="evenodd" transform="matrix(1 0 0 1 0 0)" d="M0 0L614.4 0L614.4 0L614.4 869.1512L614.4 869.1512L0 869.1512L0 869.1512L0 0z" /></clipPath><clipPath id="102"><path id="" clip-rule="evenodd" transform="matrix(1 0 0 1 0 0)" d="M0 0L614.4 0L614.4 0L614.4 869.1512L614.4 869.1512L0 869.1512L0 869.1512L0 0z" /></clipPath><clipPath id="103"><path id="" clip-rule="evenodd" transform="matrix(1 0 0 1 0 0)" d="M56.94439 209.7951L382.1268 209.7951L382.1268 209.7951L382.1268 232.2731L382.1268 232.2731L56.94439 232.2731L56.94439 232.2731L56.94439 209.7951z" /></clipPath><clipPath id="104"><path id="" clip-rule="evenodd" transform="matrix(1 0 0 1 0 0)" d="M0 0L614.4 0L614.4 0L614.4 869.1512L614.4 869.1512L0 869.1512L0 869.1512L0 0z" /></clipPath><clipPath id="105"><path id="" clip-rule="evenodd" transform="matrix(1 0 0 1 0 0)" d="M0 0L614.4 0L614.4 0L614.4 869.1512L614.4 869.1512L0 869.1512L0 869.1512L0 0z" /></clipPath><clipPath id="106"><path id="" clip-rule="evenodd" transform="matrix(1 0 0 1 0 0)" d="M56.94439 313.1941L382.1268 313.1941L382.1268 313.1941L382.1268 335.6721L382.1268 335.6721L56.94439 335.6721L56.94439 335.6721L56.94439 313.1941z" /></clipPath><clipPath id="107"><path id="" clip-rule="evenodd" transform="matrix(1 0 0 1 0 0)" d="M0 0L614.4 0L614.4 0L614.4 869.1512L614.4 869.1512L0 869.1512L0 869.1512L0 0z" /></clipPath><clipPath id="108"><path id="" clip-rule="evenodd" transform="matrix(1 0 0 1 0 0)" d="M0 0L614.4 0L614.4 0L614.4 869.1512L614.4 869.1512L0 869.1512L0 869.1512L0 0z" /></clipPath><clipPath id="109"><path id="" clip-rule="evenodd" transform="matrix(1 0 0 1 0 0)" d="M56.94439 313.1941L382.1268 313.1941L382.1268 313.1941L382.1268 335.6721L382.1268 335.6721L56.94439 335.6721L56.94439 335.6721L56.94439 313.1941z" /></clipPath><clipPath id="110"><path id="" clip-rule="evenodd" transform="matrix(1 0 0 1 0 0)" d="M0 0L614.4 0L614.4 0L614.4 869.1512L614.4 869.1512L0 869.1512L0 869.1512L0 0z" /></clipPath></defs><g transform="matrix(1.333333 0 0 1.333333 0 0)"><g clip-path="url(#1)"><g clip-path="url(#2)"><path id="1" transform="matrix(1 0 0 -1 0 870)" d="M0 869.9998L614.4 869.9998L614.4 0.8483887L0 0.8483887z" stroke="none" fill="#FFFFFF" fill-rule="nonzero" /><path id="2" transform="matrix(1 0 0 -1 0 870)" d="M0 3300.626L614.4 3300.626L614.4 422.6865L0 422.6865z" stroke="none" fill="#FFFFFF" fill-rule="nonzero" /><path id="3" transform="matrix(1 0 0 -1 0 870)" d="M37.46341 2068.829L38.21268 2068.829L38.21268 853.5159L37.46341 853.5159z" stroke="none" fill="#5974D4" fill-rule="nonzero" /><path id="4" transform="matrix(1 0 0 -1 0 870)" d="M37.46341 853.5159L38.21268 853.5159L38.21268 683.4319L37.46341 683.4319z" stroke="none" fill="#5974D4" fill-rule="nonzero" /></g><g clip-path="url(#3)"><g clip-path="url(#4)"></g></g><g clip-path="url(#5)"></g><g clip-path="url(#6)"><g clip-path="url(#7)"></g></g><g clip-path="url(#8)"></g><g clip-path="url(#9)"><g clip-path="url(#10)"><path id="12" transform="matrix(1 0 0 -1 0 870)" d="M74.17756 796.5715L125.1278 796.5715L125.1278 745.6211L74.17756 745.6211z" stroke="none" fill="#829DFF" fill-rule="nonzero" /><g transform="matrix(0.7492682 0 0 0.7492682 74.17755 73.42834)"><g transform="matrix(1 0 0 1 0 0)"><image x="0" y="0" xlink:href="img_05.png" width="68" height="68" /></g></g></g></g><g clip-path="url(#11)"></g><g clip-path="url(#12)"><g clip-path="url(#13)"></g></g><g clip-path="url(#14)"></g><g clip-path="url(#15)"><g clip-path="url(#16)"></g></g><g clip-path="url(#17)"></g><g clip-path="url(#18)"><g clip-path="url(#19)"><path id="16" transform="matrix(1 0 0 -1 0 870)" d="M99.65267 793.5746C 112.0606 793.5746 122.1307 783.5045 122.1307 771.0966C 122.1307 758.6887 112.0606 748.6185 99.65267 748.6185C 87.2448 748.6185 77.17463 758.6887 77.17463 771.0966C 77.17463 783.5045 87.2448 793.5746 99.65267 793.5746z" stroke="none" fill="#FFFFFF" fill-rule="evenodd" /></g></g><g clip-path="url(#20)"></g><g clip-path="url(#21)"><g clip-path="url(#22)"></g></g><g clip-path="url(#23)"></g><g clip-path="url(#24)"><g clip-path="url(#25)"></g></g><g clip-path="url(#26)"></g><g clip-path="url(#27)"><g clip-path="url(#28)"><path id="26" transform="matrix(1 0 0 -1 0 870)" d="M161.0927 796.5715L212.0429 796.5715L212.0429 745.6211L161.0927 745.6211z" stroke="none" fill="#829DFF" fill-rule="nonzero" /><g transform="matrix(0.7492682 0 0 0.7492682 161.0927 73.42834)"><g transform="matrix(1 0 0 1 0 0)"><image x="0" y="0" xlink:href="img_05.png" width="68" height="68" /></g></g></g></g><g clip-path="url(#29)"></g><g clip-path="url(#30)"><g clip-path="url(#31)"></g></g><g clip-path="url(#32)"></g><g clip-path="url(#33)"><g clip-path="url(#34)"></g></g><g clip-path="url(#35)"></g><g clip-path="url(#36)"><g clip-path="url(#37)"><path id="30" transform="matrix(1 0 0 -1 0 870)" d="M186.5678 793.5746C 198.9757 793.5746 209.0458 783.5045 209.0458 771.0966C 209.0458 758.6887 198.9757 748.6185 186.5678 748.6185C 174.1599 748.6185 164.0897 758.6887 164.0897 771.0966C 164.0897 783.5045 174.1599 793.5746 186.5678 793.5746z" stroke="none" fill="#FFFFFF" fill-rule="evenodd" /></g></g><g clip-path="url(#38)"></g><g clip-path="url(#39)"><g clip-path="url(#40)"></g></g><g clip-path="url(#41)"></g><g clip-path="url(#42)"><g clip-path="url(#43)"></g></g><g clip-path="url(#44)"></g><g clip-path="url(#45)"><g clip-path="url(#46)"><path id="39" transform="matrix(1 0 0 -1 0 870)" d="M248.0078 796.5715L298.958 796.5715L298.958 745.6211L248.0078 745.6211z" stroke="none" fill="#829DFF" fill-rule="nonzero" /><g transform="matrix(0.7492682 0 0 0.7492682 248.0078 73.42834)"><g transform="matrix(1 0 0 1 0 0)"><image x="0" y="0" xlink:href="img_05.png" width="68" height="68" /></g></g></g></g><g clip-path="url(#47)"></g><g clip-path="url(#48)"><g clip-path="url(#49)"></g></g><g clip-path="url(#50)"></g><g clip-path="url(#51)"><g clip-path="url(#52)"></g></g><g clip-path="url(#53)"></g><g clip-path="url(#54)"><g clip-path="url(#55)"><path id="43" transform="matrix(1 0 0 -1 0 870)" d="M273.4829 793.5746C 285.8908 793.5746 295.9609 783.5045 295.9609 771.0966C 295.9609 758.6887 285.8908 748.6185 273.4829 748.6185C 261.075 748.6185 251.0049 758.6887 251.0049 771.0966C 251.0049 783.5045 261.075 793.5746 273.4829 793.5746z" stroke="none" fill="#FFFFFF" fill-rule="evenodd" /></g></g><g clip-path="url(#56)"></g><g clip-path="url(#57)"><g clip-path="url(#58)"></g></g><g clip-path="url(#59)"></g><g clip-path="url(#60)"><g clip-path="url(#61)"></g></g><g clip-path="url(#62)"></g><g clip-path="url(#63)"><g clip-path="url(#64)"><path id="63" transform="matrix(1 0 0 -1 0 870)" d="M334.9229 796.5715L385.8731 796.5715L385.8731 745.6211L334.9229 745.6211z" stroke="none" fill="#829DFF" fill-rule="nonzero" /><g transform="matrix(0.7492682 0 0 0.7492682 334.9229 73.42834)"><g transform="matrix(1 0 0 1 0 0)"><image x="0" y="0" xlink:href="img_05.png" width="68" height="68" /></g></g></g></g><g clip-path="url(#65)"></g><g clip-path="url(#66)"><g clip-path="url(#67)"></g></g><g clip-path="url(#68)"></g><g clip-path="url(#69)"><g clip-path="url(#70)"></g></g><g clip-path="url(#71)"></g><g clip-path="url(#72)"><g clip-path="url(#73)"><path id="67" transform="matrix(1 0 0 -1 0 870)" d="M360.398 793.5746C 372.8059 793.5746 382.8761 783.5045 382.8761 771.0966C 382.8761 758.6887 372.8059 748.6185 360.398 748.6185C 347.9901 748.6185 337.92 758.6887 337.92 771.0966C 337.92 783.5045 347.9901 793.5746 360.398 793.5746z" stroke="none" fill="#FFFFFF" fill-rule="evenodd" /></g></g><g clip-path="url(#74)"></g><g clip-path="url(#75)"><g clip-path="url(#76)"></g></g><g clip-path="url(#77)"></g><g clip-path="url(#78)"><g clip-path="url(#79)"></g></g><g clip-path="url(#80)"></g><g clip-path="url(#81)"><g clip-path="url(#82)"><path id="91" transform="matrix(1 0 0 -1 0 870)" d="M421.838 796.5715L472.7883 796.5715L472.7883 745.6211L421.838 745.6211z" stroke="none" fill="#829DFF" fill-rule="nonzero" /><g transform="matrix(0.7492682 0 0 0.7492682 421.838 73.42834)"><g transform="matrix(1 0 0 1 0 0)"><image x="0" y="0" xlink:href="img_06.png" width="68" height="68" /></g></g></g></g><g clip-path="url(#83)"></g><g clip-path="url(#84)"><g clip-path="url(#85)"></g></g><g clip-path="url(#86)"></g><g clip-path="url(#87)"><g clip-path="url(#88)"></g></g><g clip-path="url(#89)"></g><g clip-path="url(#90)"><g clip-path="url(#91)"><path id="95" transform="matrix(1 0 0 -1 0 870)" d="M447.3131 793.5746C 459.721 793.5746 469.7912 783.5045 469.7912 771.0966C 469.7912 758.6887 459.721 748.6185 447.3131 748.6185C 434.9053 748.6185 424.8351 758.6887 424.8351 771.0966C 424.8351 783.5045 434.9053 793.5746 447.3131 793.5746z" stroke="none" fill="#FFFFFF" fill-rule="evenodd" /></g></g><g clip-path="url(#92)"></g><g clip-path="url(#93)"><g clip-path="url(#94)"></g></g><g clip-path="url(#95)"></g><g clip-path="url(#96)"><g clip-path="url(#97)"></g></g><g clip-path="url(#98)"><path id="99" transform="matrix(1 0 0 -1 0 870)" d="M37.46341 683.4319L38.21268 683.4319L38.21268 580.033L37.46341 580.033z" stroke="none" fill="#5974D4" fill-rule="nonzero" /></g><g clip-path="url(#99)"><g clip-path="url(#100)"></g></g><g clip-path="url(#101)"></g><g clip-path="url(#102)"><g clip-path="url(#103)"></g></g><g clip-path="url(#104)"><path id="131" transform="matrix(1 0 0 -1 0 870)" d="M37.46341 580.033L38.21268 580.033L38.21268 452.6572L37.46341 452.6572z" stroke="none" fill="#5974D4" fill-rule="nonzero" /></g><g clip-path="url(#105)"><g clip-path="url(#106)"></g></g><g clip-path="url(#107)"></g><g clip-path="url(#108)"><g clip-path="url(#109)"></g></g><g clip-path="url(#110)"><path id="136" transform="matrix(1 0 0 -1 0 870)" d="M62.93853 518.9675C 62.93853 517.9331 62.09989 517.0942 61.06536 517.0942C 60.03083 517.0942 59.19219 517.9331 59.19219 518.9675C 59.19219 520.002 60.03083 520.8406 61.06536 520.8406C 62.09989 520.8406 62.93853 520.002 62.93853 518.9675z" stroke="#747474" stroke-width="0.7492682" fill="#747474" fill-rule="evenodd" /><path id="180" transform="matrix(1 0 0 -1 0 870)" d="M62.93853 503.2329C 62.93853 502.1985 62.09989 501.3596 61.06536 501.3596C 60.03083 501.3596 59.19219 502.1985 59.19219 503.2329C 59.19219 504.2673 60.03083 505.106 61.06536 505.106C 62.09989 505.106 62.93853 504.2673 62.93853 503.2329z" stroke="#747474" stroke-width="0.7492682" fill="#747474" fill-rule="evenodd" /><path id="205" transform="matrix(1 0 0 -1 0 870)" d="M62.93853 487.4983C 62.93853 486.4639 62.09989 485.625 61.06536 485.625C 60.03083 485.625 59.19219 486.4639 59.19219 487.4983C 59.19219 488.5327 60.03083 489.3713 61.06536 489.3713C 62.09989 489.3713 62.93853 488.5327 62.93853 487.4983z" stroke="#747474" stroke-width="0.7492682" fill="#747474" fill-rule="evenodd" /><path id="226" transform="matrix(1 0 0 -1 0 870)" d="M38.21268 830.2888C 44.41662 830.2888 49.4517 825.2537 49.4517 819.0497C 49.4517 812.8458 44.41662 807.8107 38.21268 807.8107C 32.00874 807.8107 26.97366 812.8458 26.97366 819.0497C 26.97366 825.2537 32.00874 830.2888 38.21268 830.2888z" stroke="none" fill="#5974D4" fill-rule="evenodd" /><path id="228" transform="matrix(1 0 0 -1 0 870)" d="M38.21268 660.2049C 44.41662 660.2049 49.4517 655.1698 49.4517 648.9659C 49.4517 642.7619 44.41662 637.7269 38.21268 637.7269C 32.00874 637.7269 26.97366 642.7619 26.97366 648.9659C 26.97366 655.1698 32.00874 660.2049 38.21268 660.2049z" stroke="none" fill="#5974D4" fill-rule="evenodd" /><path id="230" transform="matrix(1 0 0 -1 0 870)" d="M38.21268 556.8059C 44.41662 556.8059 49.4517 551.7708 49.4517 545.5669C 49.4517 539.3629 44.41662 534.3279 38.21268 534.3279C 32.00874 534.3279 26.97366 539.3629 26.97366 545.5669C 26.97366 551.7708 32.00874 556.8059 38.21268 556.8059z" stroke="none" fill="#5974D4" fill-rule="evenodd" /></g></g></g></svg>