<svg xmlns="http://www.w3.org/2000/svg" xmlns:xlink="http://www.w3.org/1999/xlink" id="body_1" preserveAspectRatio="xMinYMin meet" viewBox="0 0 820 1160"><defs><clipPath id="1"><path id="" clip-rule="evenodd" transform="matrix(1 0 0 1 0 0)" d="M0 870L0 0L0 0L615 0L615 0L615 870L615 870L0 870z" /></clipPath><clipPath id="2"><path id="" clip-rule="evenodd" transform="matrix(1 0 0 1 0 0)" d="M0 0L614.4 0L614.4 0L614.4 869.1512L614.4 869.1512L0 869.1512L0 869.1512L0 0z" /></clipPath><clipPath id="3"><path id="" clip-rule="evenodd" transform="matrix(1 0 0 1 0 0)" d="M0 0L614.4 0L614.4 0L614.4 869.1512L614.4 869.1512L0 869.1512L0 869.1512L0 0z" /></clipPath><clipPath id="4"><path id="" clip-rule="evenodd" transform="matrix(1 0 0 1 0 0)" d="M0 176.8273L0 176.078L0 176.078L614.4 176.078L614.4 176.078L614.4 176.8273" /></clipPath><clipPath id="5"><path id="" clip-rule="evenodd" transform="matrix(1 0 0 1 0 0)" d="M0 0L614.4 0L614.4 0L614.4 869.1512L614.4 869.1512L0 869.1512L0 869.1512L0 0z" /></clipPath><clipPath id="6"><path id="" clip-rule="evenodd" transform="matrix(1 0 0 1 0 0)" d="M0 0L614.4 0L614.4 0L614.4 869.1512L614.4 869.1512L0 869.1512L0 869.1512L0 0z" /></clipPath><clipPath id="7"><path id="" clip-rule="evenodd" transform="matrix(1 0 0 1 0 0)" d="M56.94439 199.3054L382.1268 199.3054L382.1268 199.3054L382.1268 221.7834L382.1268 221.7834L56.94439 221.7834L56.94439 221.7834L56.94439 199.3054z" /></clipPath><clipPath id="8"><path id="" clip-rule="evenodd" transform="matrix(1 0 0 1 0 0)" d="M0 0L614.4 0L614.4 0L614.4 869.1512L614.4 869.1512L0 869.1512L0 869.1512L0 0z" /></clipPath><clipPath id="9"><path id="" clip-rule="evenodd" transform="matrix(1 0 0 1 0 0)" d="M0 0L614.4 0L614.4 0L614.4 869.1512L614.4 869.1512L0 869.1512L0 869.1512L0 0z" /></clipPath><clipPath id="10"><path id="" clip-rule="evenodd" transform="matrix(1 0 0 1 0 0)" d="M56.94439 199.3054L382.1268 199.3054L382.1268 199.3054L382.1268 221.7834L382.1268 221.7834L56.94439 221.7834L56.94439 221.7834L56.94439 199.3054z" /></clipPath><clipPath id="11"><path id="" clip-rule="evenodd" transform="matrix(1 0 0 1 0 0)" d="M0 0L614.4 0L614.4 0L614.4 869.1512L614.4 869.1512L0 869.1512L0 869.1512L0 0z" /></clipPath><clipPath id="12"><path id="" clip-rule="evenodd" transform="matrix(1 0 0 1 0 0)" d="M0 0L614.4 0L614.4 0L614.4 869.1512L614.4 869.1512L0 869.1512L0 869.1512L0 0z" /></clipPath><clipPath id="13"><path id="" clip-rule="evenodd" transform="matrix(1 0 0 1 0 0)" d="M56.94439 298.958L382.1268 298.958L382.1268 298.958L382.1268 321.436L382.1268 321.436L56.94439 321.436L56.94439 321.436L56.94439 298.958z" /></clipPath><clipPath id="14"><path id="" clip-rule="evenodd" transform="matrix(1 0 0 1 0 0)" d="M0 0L614.4 0L614.4 0L614.4 869.1512L614.4 869.1512L0 869.1512L0 869.1512L0 0z" /></clipPath><clipPath id="15"><path id="" clip-rule="evenodd" transform="matrix(1 0 0 1 0 0)" d="M0 0L614.4 0L614.4 0L614.4 869.1512L614.4 869.1512L0 869.1512L0 869.1512L0 0z" /></clipPath><clipPath id="16"><path id="" clip-rule="evenodd" transform="matrix(1 0 0 1 0 0)" d="M56.94439 298.958L382.1268 298.958L382.1268 298.958L382.1268 321.436L382.1268 321.436L56.94439 321.436L56.94439 321.436L56.94439 298.958z" /></clipPath><clipPath id="17"><path id="" clip-rule="evenodd" transform="matrix(1 0 0 1 0 0)" d="M0 0L614.4 0L614.4 0L614.4 869.1512L614.4 869.1512L0 869.1512L0 869.1512L0 0z" /></clipPath></defs><g transform="matrix(1.333333 0 0 1.333333 0 0)"><g clip-path="url(#1)"><g clip-path="url(#2)"><path id="1" transform="matrix(1 0 0 -1 0 870)" d="M0 870L614.4 870L614.4 0.8487549L0 0.8487549z" stroke="none" fill="#FFFFFF" fill-rule="nonzero" /><path id="2" transform="matrix(1 0 0 -1 0 870)" d="M0 870L614.4 870L614.4 0.8487549L0 0.8487549z" stroke="none" fill="#FFFFFF" fill-rule="nonzero" /><g transform="matrix(0.7492682 0 0 0.7492682 0 0)"><g transform="matrix(1 0 0 1 0 0)"><image x="0" y="0" xlink:href="img_01.png" width="820" height="149" /></g></g></g><g clip-path="url(#3)"><g clip-path="url(#4)"><path id="4" transform="matrix(1 0 0 -1 0 870)" d="M0 693.9219L0.7492682 693.9219L0.7492682 693.1727L0 693.1727z" stroke="none" fill="#CFCFCF" fill-rule="nonzero" /><path id="5" transform="matrix(1 0 0 -1 0 870)" d="M613.6507 693.9219L614.4 693.9219L614.4 693.1727L613.6507 693.1727z" stroke="none" fill="#CFCFCF" fill-rule="nonzero" /><path id="6" transform="matrix(1 0 0 -1 0 870)" d="M0.7492682 693.5473L613.6507 693.5473" stroke="#CFCFCF" stroke-width="0.7492682" stroke-dasharray="3,3" fill="none" /></g></g><g clip-path="url(#5)"><path id="7" transform="matrix(1 0 0 -1 0 870)" d="M0 693.1727L614.4 693.1727L614.4 -2184.767L0 -2184.767z" stroke="none" fill="#FFFFFF" fill-rule="nonzero" /><path id="10" transform="matrix(1 0 0 -1 0 870)" d="M25.47512 756.1112L431.5785 756.1112C 433.2329 756.1112 434.5756 754.7686 434.5756 753.1141L434.5756 753.1141L434.5756 734.3824C 434.5756 732.7281 433.2329 731.3854 431.5785 731.3854L431.5785 731.3854L25.47512 731.3854C 23.82074 731.3854 22.47805 732.7281 22.47805 734.3824L22.47805 734.3824L22.47805 753.1141C 22.47805 754.7686 23.82074 756.1112 25.47512 756.1112z" stroke="none" fill="#FFFFFF" fill-rule="evenodd" /><path id="11" transform="matrix(1 0 0 -1 0 870)" d="M43.45756 750.1171L44.95609 750.1171L44.95609 738.1288L43.45756 738.1288z" stroke="none" fill="#A7A7A7" fill-rule="nonzero" /><path id="14" transform="matrix(1 0 0 -1 0 870)" d="M77.9239 750.1171L79.42243 750.1171L79.42243 738.1288L77.9239 738.1288z" stroke="none" fill="#A7A7A7" fill-rule="nonzero" /><path id="19" transform="matrix(1 0 0 -1 0 870)" d="M110.8917 750.1171L112.3902 750.1171L112.3902 738.1288L110.8917 738.1288z" stroke="none" fill="#A7A7A7" fill-rule="nonzero" /><path id="23" transform="matrix(1 0 0 -1 0 870)" d="M160.3434 750.1171L161.8419 750.1171L161.8419 738.1288L160.3434 738.1288z" stroke="none" fill="#A7A7A7" fill-rule="nonzero" /><path id="29" transform="matrix(1 0 0 -1 0 870)" d="M238.2673 750.1171L239.7658 750.1171L239.7658 738.1288L238.2673 738.1288z" stroke="none" fill="#A7A7A7" fill-rule="nonzero" /><path id="61" transform="matrix(1 0 0 -1 0 870)" d="M37.46341 670.6946L38.21268 670.6946L38.21268 594.2693L37.46341 594.2693z" stroke="none" fill="#5974D4" fill-rule="nonzero" /></g><g clip-path="url(#6)"><g clip-path="url(#7)"></g></g><g clip-path="url(#8)"></g><g clip-path="url(#9)"><g clip-path="url(#10)"></g></g><g clip-path="url(#11)"><path id="92" transform="matrix(1 0 0 -1 0 870)" d="M37.46341 594.2693L38.21268 594.2693L38.21268 -538.6244L37.46341 -538.6244z" stroke="none" fill="#5974D4" fill-rule="nonzero" /></g><g clip-path="url(#12)"><g clip-path="url(#13)"></g></g><g clip-path="url(#14)"></g><g clip-path="url(#15)"><g clip-path="url(#16)"></g></g><g clip-path="url(#17)"><path id="637" transform="matrix(1 0 0 -1 0 870)" d="M38.21268 670.6946C 44.41662 670.6946 49.4517 665.6595 49.4517 659.4556C 49.4517 653.2517 44.41662 648.2166 38.21268 648.2166C 32.00874 648.2166 26.97366 653.2517 26.97366 659.4556C 26.97366 665.6595 32.00874 670.6946 38.21268 670.6946z" stroke="none" fill="#5974D4" fill-rule="evenodd" /><path id="639" transform="matrix(1 0 0 -1 0 870)" d="M38.21268 571.042C 44.41662 571.042 49.4517 566.0068 49.4517 559.803C 49.4517 553.599 44.41662 548.564 38.21268 548.564C 32.00874 548.564 26.97366 553.599 26.97366 559.803C 26.97366 566.0068 32.00874 571.042 38.21268 571.042z" stroke="none" fill="#5974D4" fill-rule="evenodd" /></g></g></g></svg>