<svg xmlns="http://www.w3.org/2000/svg" xmlns:xlink="http://www.w3.org/1999/xlink" id="body_3" preserveAspectRatio="xMinYMin meet" viewBox="0 0 820 1160"><defs><clipPath id="1"><path id="" clip-rule="evenodd" transform="matrix(1 0 0 1 0 0)" d="M0 870L0 0L0 0L615 0L615 0L615 870L615 870L0 870z" /></clipPath><clipPath id="2"><path id="" clip-rule="evenodd" transform="matrix(1 0 0 1 0 0)" d="M0 0L614.4 0L614.4 0L614.4 869.1512L614.4 869.1512L0 869.1512L0 869.1512L0 0z" /></clipPath></defs><g transform="matrix(1.333333 0 0 1.333333 0 0)"><g clip-path="url(#1)"><g clip-path="url(#2)"><path id="1" transform="matrix(1 0 0 -1 0 870)" d="M0 869.9998L614.4 869.9998L614.4 0.8486328L0 0.8486328z" stroke="none" fill="#FFFFFF" fill-rule="nonzero" /><path id="2" transform="matrix(1 0 0 -1 0 870)" d="M0 2431.475L614.4 2431.475L614.4 -446.4646L0 -446.4646z" stroke="none" fill="#FFFFFF" fill-rule="nonzero" /><path id="3" transform="matrix(1 0 0 -1 0 870)" d="M37.46341 1199.678L38.21268 1199.678L38.21268 -15.63525L37.46341 -15.63525z" stroke="none" fill="#5974D4" fill-rule="nonzero" /><path id="10" transform="matrix(1 0 0 -1 0 870)" d="M62.93853 783.4594C 62.93853 782.4249 62.09989 781.5862 61.06536 781.5862C 60.03083 781.5862 59.19219 782.4249 59.19219 783.4594C 59.19219 784.4938 60.03083 785.3325 61.06536 785.3325C 62.09989 785.3325 62.93853 784.4938 62.93853 783.4594z" stroke="#747474" stroke-width="0.7492682" fill="#747474" fill-rule="evenodd" /><path id="94" transform="matrix(1 0 0 -1 0 870)" d="M62.93853 751.99C 62.93853 750.9556 62.09989 750.1168 61.06536 750.1168C 60.03083 750.1168 59.19219 750.9556 59.19219 751.99C 59.19219 753.0245 60.03083 753.8632 61.06536 753.8632C 62.09989 753.8632 62.93853 753.0245 62.93853 751.99z" stroke="#747474" stroke-width="0.7492682" fill="#747474" fill-rule="evenodd" /><path id="148" transform="matrix(1 0 0 -1 0 870)" d="M62.93853 720.5208C 62.93853 719.4863 62.09989 718.6476 61.06536 718.6476C 60.03083 718.6476 59.19219 719.4863 59.19219 720.5208C 59.19219 721.5552 60.03083 722.3939 61.06536 722.3939C 62.09989 722.3939 62.93853 721.5552 62.93853 720.5208z" stroke="#747474" stroke-width="0.7492682" fill="#747474" fill-rule="evenodd" /><path id="185" transform="matrix(1 0 0 -1 0 870)" d="M62.93853 704.7861C 62.93853 703.7517 62.09989 702.913 61.06536 702.913C 60.03083 702.913 59.19219 703.7517 59.19219 704.7861C 59.19219 705.8206 60.03083 706.6593 61.06536 706.6593C 62.09989 706.6593 62.93853 705.8206 62.93853 704.7861z" stroke="#747474" stroke-width="0.7492682" fill="#747474" fill-rule="evenodd" /><path id="246" transform="matrix(1 0 0 -1 0 870)" d="M62.93853 673.3169C 62.93853 672.2825 62.09989 671.4437 61.06536 671.4437C 60.03083 671.4437 59.19219 672.2825 59.19219 673.3169C 59.19219 674.3513 60.03083 675.1901 61.06536 675.1901C 62.09989 675.1901 62.93853 674.3513 62.93853 673.3169z" stroke="#747474" stroke-width="0.7492682" fill="#747474" fill-rule="evenodd" /><path id="305" transform="matrix(1 0 0 -1 0 870)" d="M62.93853 641.8477C 62.93853 640.8131 62.09989 639.9745 61.06536 639.9745C 60.03083 639.9745 59.19219 640.8131 59.19219 641.8477C 59.19219 642.8821 60.03083 643.7208 61.06536 643.7208C 62.09989 643.7208 62.93853 642.8821 62.93853 641.8477z" stroke="#747474" stroke-width="0.7492682" fill="#747474" fill-rule="evenodd" /><path id="382" transform="matrix(1 0 0 -1 0 870)" d="M62.93853 610.3783C 62.93853 609.3439 62.09989 608.5051 61.06536 608.5051C 60.03083 608.5051 59.19219 609.3439 59.19219 610.3783C 59.19219 611.4128 60.03083 612.2515 61.06536 612.2515C 62.09989 612.2515 62.93853 611.4128 62.93853 610.3783z" stroke="#747474" stroke-width="0.7492682" fill="#747474" fill-rule="evenodd" /><path id="423" transform="matrix(1 0 0 -1 0 870)" d="M62.93853 578.9091C 62.93853 577.8746 62.09989 577.0359 61.06536 577.0359C 60.03083 577.0359 59.19219 577.8746 59.19219 578.9091C 59.19219 579.9435 60.03083 580.7822 61.06536 580.7822C 62.09989 580.7822 62.93853 579.9435 62.93853 578.9091z" stroke="#747474" stroke-width="0.7492682" fill="#747474" fill-rule="evenodd" /><path id="462" transform="matrix(1 0 0 -1 0 870)" d="M62.93853 563.1744C 62.93853 562.14 62.09989 561.3013 61.06536 561.3013C 60.03083 561.3013 59.19219 562.14 59.19219 563.1744C 59.19219 564.2089 60.03083 565.0476 61.06536 565.0476C 62.09989 565.0476 62.93853 564.2089 62.93853 563.1744z" stroke="#747474" stroke-width="0.7492682" fill="#747474" fill-rule="evenodd" /><path id="499" transform="matrix(1 0 0 -1 0 870)" d="M62.93853 547.4397C 62.93853 546.4053 62.09989 545.5667 61.06536 545.5667C 60.03083 545.5667 59.19219 546.4053 59.19219 547.4397C 59.19219 548.4744 60.03083 549.313 61.06536 549.313C 62.09989 549.313 62.93853 548.4744 62.93853 547.4397z" stroke="#747474" stroke-width="0.7492682" fill="#747474" fill-rule="evenodd" /></g></g></g></svg>