<svg xmlns="http://www.w3.org/2000/svg" xmlns:xlink="http://www.w3.org/1999/xlink" id="body_2" preserveAspectRatio="xMinYMin meet" viewBox="0 0 820 1160"><defs><clipPath id="1"><path id="" clip-rule="evenodd" transform="matrix(1 0 0 1 0 0)" d="M0 870L0 0L0 0L615 0L615 0L615 870L615 870L0 870z" /></clipPath><clipPath id="2"><path id="" clip-rule="evenodd" transform="matrix(1 0 0 1 0 0)" d="M0 0L614.4 0L614.4 0L614.4 869.1512L614.4 869.1512L0 869.1512L0 869.1512L0 0z" /></clipPath><clipPath id="3"><path id="" clip-rule="evenodd" transform="matrix(1 0 0 1 0 0)" d="M0 0L614.4 0L614.4 0L614.4 869.1512L614.4 869.1512L0 869.1512L0 869.1512L0 0z" /></clipPath><clipPath id="4"><path id="" clip-rule="evenodd" transform="matrix(1 0 0 1 0 0)" d="M56.94439 562.7004L382.1268 562.7004L382.1268 562.7004L382.1268 585.1785L382.1268 585.1785L56.94439 585.1785L56.94439 585.1785L56.94439 562.7004z" /></clipPath><clipPath id="5"><path id="" clip-rule="evenodd" transform="matrix(1 0 0 1 0 0)" d="M0 0L614.4 0L614.4 0L614.4 869.1512L614.4 869.1512L0 869.1512L0 869.1512L0 0z" /></clipPath><clipPath id="6"><path id="" clip-rule="evenodd" transform="matrix(1 0 0 1 0 0)" d="M0 0L614.4 0L614.4 0L614.4 869.1512L614.4 869.1512L0 869.1512L0 869.1512L0 0z" /></clipPath><clipPath id="7"><path id="" clip-rule="evenodd" transform="matrix(1 0 0 1 0 0)" d="M56.94439 562.7004L382.1268 562.7004L382.1268 562.7004L382.1268 585.1785L382.1268 585.1785L56.94439 585.1785L56.94439 585.1785L56.94439 562.7004z" /></clipPath><clipPath id="8"><path id="" clip-rule="evenodd" transform="matrix(1 0 0 1 0 0)" d="M0 0L614.4 0L614.4 0L614.4 869.1512L614.4 869.1512L0 869.1512L0 869.1512L0 0z" /></clipPath></defs><g transform="matrix(1.333333 0 0 1.333333 0 0)"><g clip-path="url(#1)"><g clip-path="url(#2)"><path id="1" transform="matrix(1 0 0 -1 0 870)" d="M0 869.9999L614.4 869.9999L614.4 0.8486328L0 0.8486328z" stroke="none" fill="#FFFFFF" fill-rule="nonzero" /><path id="2" transform="matrix(1 0 0 -1 0 870)" d="M0 1562.324L614.4 1562.324L614.4 -1315.616L0 -1315.616z" stroke="none" fill="#FFFFFF" fill-rule="nonzero" /><path id="3" transform="matrix(1 0 0 -1 0 870)" d="M37.46341 1463.42L38.21268 1463.42L38.21268 330.5267L37.46341 330.5267z" stroke="none" fill="#5974D4" fill-rule="nonzero" /><path id="681" transform="matrix(1 0 0 -1 0 870)" d="M37.46341 330.5267L38.21268 330.5267L38.21268 -884.7864L37.46341 -884.7864z" stroke="none" fill="#5974D4" fill-rule="nonzero" /></g><g clip-path="url(#3)"><g clip-path="url(#4)"></g></g><g clip-path="url(#5)"></g><g clip-path="url(#6)"><g clip-path="url(#7)"></g></g><g clip-path="url(#8)"><path id="1040" transform="matrix(1 0 0 -1 0 870)" d="M38.21268 307.2996C 44.41662 307.2996 49.4517 302.2645 49.4517 296.0605C 49.4517 289.8566 44.41662 284.8215 38.21268 284.8215C 32.00874 284.8215 26.97366 289.8566 26.97366 296.0605C 26.97366 302.2645 32.00874 307.2996 38.21268 307.2996z" stroke="none" fill="#5974D4" fill-rule="evenodd" /></g></g></g></svg>